<svg id="Layer_1" data-name="Layer 1" xmlns="http://www.w3.org/2000/svg" viewBox="0 0 209.65 712.3"><defs><style>.cls-1{fill:#c1e5e4;}.cls-2{fill:#80cdcc;}.cls-3{fill:#3dbdb0;}.cls-4{fill:#dcf0ee;}.cls-5{fill:#a8dbda;}.cls-6{fill:#6cc7c4;}.cls-7{fill:#f7a18b;}.cls-8{fill:#f05a2f;}.cls-9{fill:#f0693f;}.cls-10{fill:#fcd9ce;}.cls-11{fill:#f9cdc1;}.cls-12{fill:#f38061;}.cls-13{fill:#f37855;}.cls-14{fill:#fbd5c9;}.cls-15{fill:#fac3b4;}</style></defs><polygon class="cls-1" points="43 264.16 6.22 221.59 6.22 306.73 43 264.16"/><polygon class="cls-2" points="83.68 309.63 46.9 267.06 46.9 352.2 83.68 309.63"/><polygon class="cls-3" points="166.97 290.26 130.19 247.69 130.19 332.83 166.97 290.26"/><polygon class="cls-3" points="69.8 226.12 46.12 197.18 46.12 255.07 69.8 226.12"/><polygon class="cls-4" points="39.1 109.84 4.63 70.5 4.63 149.18 39.1 109.84"/><polygon class="cls-2" points="142.81 62.72 100.25 15.59 100.25 109.84 142.81 62.72"/><polygon class="cls-3" points="203.61 677.08 184.25 654.96 184.25 699.21 203.61 677.08"/><polygon class="cls-3" points="110.83 712.3 130.19 690.17 110.83 668.05 110.83 712.3"/><polygon class="cls-3" points="43 354.57 6.22 312.01 6.22 397.14 43 354.57"/><polygon class="cls-5" points="43 444.99 6.22 402.42 6.22 487.56 43 444.99"/><polygon class="cls-3" points="83.68 398.77 46.9 356.2 46.9 441.34 83.68 398.77"/><polygon class="cls-1" points="166.97 398.77 130.19 356.2 130.19 441.34 166.97 398.77"/><polygon class="cls-3" points="166.97 605.57 130.19 563 130.19 648.14 166.97 605.57"/><polygon class="cls-5" points="125.4 354.57 88.62 312.01 88.62 397.14 125.4 354.57"/><polygon class="cls-3" points="125.4 443.17 88.62 400.6 88.62 485.74 125.4 443.17"/><polygon class="cls-6" points="124.17 535.51 46.9 446.07 46.9 624.94 124.17 535.51"/><polygon class="cls-2" points="208.69 443.17 171.91 400.6 171.91 485.74 208.69 443.17"/><polygon class="cls-7" points="7.68 309.63 44.46 267.06 44.46 352.2 7.68 309.63"/><polygon class="cls-8" points="7.68 399.87 44.46 357.3 44.46 442.44 7.68 399.87"/><polygon class="cls-9" points="49.24 354.57 86.03 312.01 86.03 397.14 49.24 354.57"/><polygon class="cls-10" points="23.36 157.07 96.25 72.71 96.25 241.43 23.36 157.07"/><polygon class="cls-8" points="90.81 398.77 127.59 356.2 127.59 441.34 90.81 398.77"/><polygon class="cls-8" points="190.3 471.63 209.66 449.23 209.66 494.03 190.3 471.63"/><polygon class="cls-8" points="161.35 276.64 186.85 247.69 186.85 305.59 161.35 276.64"/><polygon class="cls-8" points="63.98 270.8 81.13 251.33 81.13 290.26 63.98 270.8"/><polygon class="cls-8" points="141.47 560.16 166.97 531.21 166.97 589.1 141.47 560.16"/><polygon class="cls-8" points="156.57 648.14 182.07 619.19 182.07 677.09 156.57 648.14"/><polygon class="cls-11" points="47.06 640.18 72.56 611.23 72.56 669.13 47.06 640.18"/><polygon class="cls-8" points="83.68 0 58.18 28.95 83.68 57.89 83.68 0"/><polygon class="cls-12" points="0 498.88 43.73 548.52 43.73 449.23 0 498.88"/><polygon class="cls-13" points="89.35 488.64 126.13 446.07 126.13 531.21 89.35 488.64"/><polygon class="cls-8" points="91.54 578.08 128.32 535.51 128.32 620.65 91.54 578.08"/><polygon class="cls-7" points="49.24 443.17 86.03 400.6 86.03 485.74 49.24 443.17"/><polygon class="cls-14" points="132.53 443.17 169.32 400.6 169.32 485.74 132.53 443.17"/><polygon class="cls-15" points="90.81 309.63 127.59 267.06 127.59 352.2 90.81 309.63"/></svg>