<svg id="Layer_1" data-name="Layer 1" xmlns="http://www.w3.org/2000/svg" viewBox="0 0 199.85 610.27"><defs><style>.cls-1{fill:#3fbdb0;}.cls-2{fill:#acdddd;}.cls-3{fill:#93d4d3;}.cls-4{fill:#b9e2e2;}.cls-5{fill:#e85025;}.cls-6{fill:#f0896c;}.cls-7{fill:#f7c2b3;}.cls-8{fill:#ee805e;}.cls-9{fill:#f4b5a3;}.cls-10{fill:#f5b7a5;}.cls-11{fill:#f7cabc;}.cls-12{fill:#ef8568;}.cls-13{fill:#5ac3bd;}</style></defs><polygon class="cls-1" points="162.1 422.76 194.39 460.12 194.39 385.39 162.1 422.76"/><polygon class="cls-1" points="126.4 382.85 158.69 420.21 158.69 345.49 126.4 382.85"/><polygon class="cls-1" points="53.29 399.85 85.58 437.21 85.58 362.49 53.29 399.85"/><polygon class="cls-1" points="140.48 462.13 157.47 481.56 157.47 442.71 140.48 462.13"/><polygon class="cls-1" points="162.1 343.4 194.39 380.76 194.39 306.04 162.1 343.4"/><polygon class="cls-1" points="162.1 264.04 194.39 301.4 194.39 226.68 162.1 264.04"/><polygon class="cls-1" points="126.4 304.61 158.69 341.97 158.69 267.24 126.4 304.61"/><polygon class="cls-1" points="53.29 304.61 85.58 341.97 85.58 267.24 53.29 304.61"/><polygon class="cls-2" points="53.29 123.09 85.58 160.46 85.58 85.73 53.29 123.09"/><polygon class="cls-1" points="89.78 343.4 122.06 380.76 122.06 306.04 89.78 343.4"/><polygon class="cls-1" points="89.78 265.64 122.06 303 122.06 228.27 89.78 265.64"/><polygon class="cls-3" points="90.86 184.59 158.69 263.09 158.69 106.09 90.86 184.59"/><polygon class="cls-1" points="181.84 0 140.48 54.93 181.84 109.86 181.84 0"/><polygon class="cls-4" points="21.51 254.43 44.11 280.58 44.11 228.27 21.51 254.43"/><polygon class="cls-5" points="193.11 382.85 160.82 420.21 160.82 345.49 193.11 382.85"/><polygon class="cls-6" points="193.11 303.64 160.82 341 160.82 266.28 193.11 303.64"/><polygon class="cls-5" points="156.63 343.4 124.34 380.76 124.34 306.04 156.63 343.4"/><polygon class="cls-7" points="120.14 304.61 87.86 341.97 87.86 267.24 120.14 304.61"/><polygon class="cls-5" points="32.81 240.66 15.83 260.31 15.83 221 32.81 240.66"/><polygon class="cls-5" points="58.23 411.81 35.84 437.21 35.84 386.4 58.23 411.81"/><polygon class="cls-5" points="143.69 416.94 128.64 434.02 128.64 399.85 143.69 416.94"/><polygon class="cls-5" points="75.68 162.95 53.29 188.36 53.29 137.54 75.68 162.95"/><polygon class="cls-5" points="158.54 92.71 136.16 118.12 136.16 67.3 158.54 92.71"/><polygon class="cls-5" points="161.46 260.31 199.85 216.74 161.46 173.16 161.46 260.31"/><polygon class="cls-8" points="121.42 225.72 89.14 263.09 89.14 188.36 121.42 225.72"/><polygon class="cls-9" points="121.42 142.97 89.14 180.33 89.14 105.61 121.42 142.97"/><polygon class="cls-5" points="143.58 487.77 105.96 531.34 105.96 444.19 143.58 487.77"/><polygon class="cls-10" points="156.63 265.64 124.34 303 124.34 228.27 156.63 265.64"/><polygon class="cls-11" points="83.52 265.64 51.23 303 51.23 228.27 83.52 265.64"/><polygon class="cls-12" points="120.14 382.85 87.86 420.21 87.86 345.49 120.14 382.85"/><polygon class="cls-13" points="0 485.12 50.28 543.31 50.28 426.94 0 485.12"/><polygon class="cls-5" points="143.38 610.27 181 566.7 143.38 523.12 143.38 610.27"/><polygon class="cls-1" points="116.71 530.22 139.91 556.74 139.91 503.7 116.71 530.22"/></svg>