<svg id="Layer_1" data-name="Layer 1" xmlns="http://www.w3.org/2000/svg" viewBox="0 0 705.35 741.37"><defs><style>.cls-1{fill:#c4202d;}.cls-2{fill:#00a6a6;}.cls-3{fill:#fac013;}.cls-4{fill:#f1603a;}.cls-5{fill:#ef4747;}.cls-6{fill:#dc1f26;}.cls-7{fill:#ee3924;}.cls-8{fill:#00888f;}.cls-9{fill:#40bfbb;}.cls-10{fill:#f8971d;}.cls-11{fill:#fcc786;}.cls-12{fill:#f36c3e;}.cls-13{fill:#044257;}.cls-14{fill:#f5999b;}.cls-15{fill:#0b2f3b;}.cls-16{fill:#f15959;}.cls-17{fill:#7a121d;}.cls-18{fill:#f4f4f5;}</style></defs><polygon class="cls-1" points="426.65 290.17 426.65 433.43 630.89 228.72 630.89 87.44 426.65 290.17"/><polygon class="cls-2" points="609.49 110.15 609.49 10.98 418.39 202.08 515.24 202.08 516.78 202.08 609.49 110.15"/><polygon class="cls-3" points="214.51 143.4 235.99 143.4 235.99 121.92 214.51 143.4"/><polygon class="cls-4" points="225.43 491.8 132.75 491.8 42.97 580.65 42.97 586.29 130.94 586.29 225.43 491.8"/><polygon class="cls-5" points="530.01 329.86 530.01 330 426.65 433.36 426.65 556.01 631.2 351.32 631.2 228.67 530.01 329.86"/><polygon class="cls-6" points="427.15 658.43 344.22 658.43 344.22 741.37 427.15 658.43"/><polygon class="cls-2" points="319.47 660.15 246.18 660.15 246.18 733.44 319.47 660.15"/><polygon class="cls-7" points="631.6 85.75 488.68 228.67 631.6 228.67 631.6 85.75"/><polygon class="cls-8" points="189.84 601.6 264.09 527.35 189.84 527.35 189.84 601.6"/><polygon class="cls-9" points="346.46 22.57 369.03 22.57 369.03 0 346.46 22.57"/><polygon class="cls-3" points="274.24 361.27 246.81 361.27 274.24 387.89 274.24 361.27"/><polygon class="cls-7" points="246.18 660.27 427.1 479.48 427.1 388.7 336.58 479.23 336.58 479.35 246.18 569.75 246.18 660.27"/><polygon class="cls-7" points="288.7 427.39 288.7 528.52 427.07 389.83 427.07 288.7 288.7 427.39"/><polygon class="cls-1" points="427.29 478.83 427.29 659.96 245.98 659.71 427.29 478.83"/><polygon class="cls-8" points="516.78 201.46 288.7 201.46 288.7 429.19 516.78 201.46"/><polygon class="cls-10" points="580.69 402.39 631.91 350.95 631.91 402.39 580.69 402.39"/><polygon class="cls-9" points="369.01 166.79 369.01 251.09 453.31 166.79 453.31 82.5 369.01 166.79"/><polygon class="cls-6" points="388.03 429.19 288.7 429.19 288.7 528.52 388.03 429.19"/><polygon class="cls-4" points="613.71 539.88 528.75 625.2 528.75 539.88 613.71 539.88"/><polygon class="cls-3" points="483.09 52.99 452.76 52.99 452.76 83.32 483.09 52.99"/><polygon class="cls-3" points="635.71 454.04 613.75 454.04 613.75 476 635.71 454.04"/><polygon class="cls-8" points="418.82 117.03 368.56 117.03 368.56 167.29 418.82 117.03"/><polygon class="cls-11" points="683.74 349.54 631.6 349.54 631.6 401.69 683.74 349.54"/><polygon class="cls-12" points="575.19 453.1 529.48 453.1 529.48 498.81 575.19 453.1"/><polygon class="cls-8" points="319.45 201.44 190.28 330.52 190.28 395.33 254.91 330.7 254.91 330.62 319.45 266.07 319.45 201.44"/><polygon class="cls-13" points="289.09 367.71 289.09 295.51 190.29 394.53 190.29 466.74 289.09 367.71"/><polygon class="cls-13" points="190.14 330.99 190.14 201.66 319.45 201.44 190.14 330.99"/><polygon class="cls-6" points="127.92 527.35 289.09 527.35 289.09 366.43 127.92 527.35"/><polygon class="cls-7" points="42.97 587.22 138.39 491.8 42.97 491.8 42.97 587.22"/><polygon class="cls-9" points="115.86 290.35 42.42 364.1 42.42 290.35 115.86 290.35"/><polygon class="cls-2" points="189.94 216.66 116.19 216.66 116.19 216.76 42.54 290.41 116.29 290.41 116.29 290.31 189.94 216.66"/><polygon class="cls-7" points="190.08 289.79 190.08 215.91 115.86 289.17 115.86 364.01 190.08 289.79"/><polygon class="cls-3" points="73.74 364.33 42.42 364.33 42.42 395.65 73.74 364.33"/><polygon class="cls-11" points="43.63 436.92 43.63 393.29 0 436.92 0 480.54 43.63 436.92"/><polygon class="cls-11" points="699.61 137.29 699.61 94.29 656.61 137.29 656.61 180.28 699.61 137.29"/><polygon class="cls-9" points="155.7 150.12 155.7 107.13 112.71 150.12 112.71 193.12 155.7 150.12"/><polygon class="cls-12" points="678.82 453.81 678.82 410.81 635.82 453.81 635.82 496.8 678.82 453.81"/><polygon class="cls-14" points="705.35 275.83 705.35 202.08 631.6 275.83 631.6 349.58 705.35 275.83"/><polygon class="cls-15" points="218.17 366.43 289.09 366.43 289.09 295.51 218.17 366.43"/><polygon class="cls-10" points="42.42 364.1 115.86 290.35 115.86 364.1 42.42 364.1"/><polygon class="cls-2" points="214.6 143.02 189.43 168.3 189.43 143.02 214.6 143.02"/><polygon class="cls-9" points="116.4 216.77 189.84 143.02 189.84 216.77 116.4 216.77"/><polygon class="cls-9" points="189.84 602.33 242.15 602.33 189.84 653.11 189.84 602.33"/><polygon class="cls-5" points="116.29 437.35 116.29 437.25 190.09 363.45 190.09 289.55 116.19 363.45 116.19 363.55 42.97 436.77 42.97 510.67 116.29 437.35"/><polygon class="cls-3" points="581.16 453 581.16 402.32 631.91 402.32 581.16 453"/><polygon class="cls-7" points="344.22 741.37 427.42 741.37 427.42 741.26 529.3 639.38 529.3 556.17 427.31 658.16 344.22 741.37"/><polygon class="cls-16" points="510.01 349.54 631.7 349.54 631.7 227.86 510.01 349.54"/><polygon class="cls-11" points="1.2 289.74 1.2 330.97 42.42 289.74 42.16 289.74 1.2 289.74"/><polygon class="cls-3" points="631.6 227.35 661.92 227.35 661.92 197.03 631.6 227.35"/><polygon class="cls-13" points="419.47 117.06 369.02 117.06 369.02 66.61 419.47 117.06"/><polygon class="cls-17" points="288.5 427.28 187.56 528.22 288.5 528.22 288.5 427.28"/><polygon class="cls-13" points="418.08 202.08 470.04 150.12 418.08 150.12 418.08 202.08"/><polygon class="cls-6" points="631.6 85.13 558.9 157.82 631.6 157.82 631.6 85.13"/><rect class="cls-18" x="936.32" y="142.54" width="6.25" height="6.25" transform="translate(-331.51 -2.59) rotate(-0.63)"/><rect class="cls-7" x="379.53" y="604.04" width="6.25" height="6.25"/><polygon class="cls-10" points="427.36 658.12 529.3 556.17 427.36 556.17 427.36 658.12"/><polygon class="cls-17" points="427.29 551.72 427.29 659.96 318.94 659.81 427.29 551.72"/><rect class="cls-9" x="596.15" y="692.65" width="4.81" height="4.81" transform="translate(874.81 1370.44) rotate(179.37)"/><rect class="cls-6" x="718.99" y="638.32" width="4.81" height="4.81" transform="translate(1119.88 1260.41) rotate(179.36)"/><polygon class="cls-1" points="190.09 363.4 52.46 501.34 189.82 501.34 190.09 363.4"/><polygon class="cls-9" points="189.85 527.35 130.09 587.1 130.09 662.2 189.85 602.45 189.85 527.35"/><polygon class="cls-3" points="529.3 454.23 529.3 556.17 427.36 556.17 529.3 454.23"/><polygon class="cls-10" points="613.89 454.71 528.57 539.67 613.89 539.67 613.89 454.71"/><polygon class="cls-2" points="369.04 22.79 190.33 201.49 369.04 201.49 369.04 22.79"/><polygon class="cls-9" points="190.33 201.49 236.33 201.49 236.33 155.5 190.33 201.49"/><rect class="cls-18" x="645.22" y="145.69" width="6.25" height="6.25" transform="translate(-331.57 -5.81) rotate(-0.63)"/><polygon class="cls-9" points="549.99 70.17 470.04 150.12 549.99 150.12 549.99 70.17"/><rect class="cls-7" x="138.39" y="451.66" width="6.1" height="6.1"/><polygon class="cls-3" points="613.27 539.15 571.71 539.15 613.27 498.81 613.27 539.15"/></svg>